<svg width="40" height="48" viewBox="0 0 40 48" fill="none" xmlns="http://www.w3.org/2000/svg">
<path d="M28.7147 0.792548L28.7144 0.792594C27.7021 0.909488 26.43 1.4254 25.2032 2.18936C23.9811 2.95047 22.8542 3.92663 22.1182 4.91487L22.1172 4.91621C21.2602 6.05883 20.7543 7.14605 20.3082 8.82435L20.0961 9.62235L20.1061 10.4703C20.1115 10.7161 20.1208 10.9518 20.1319 11.1331C20.1339 11.1657 20.136 11.1961 20.138 11.224C20.2724 11.2344 20.4885 11.24 20.845 11.242L20.8456 11.242C21.2555 11.2448 21.4294 11.2436 21.5857 11.223C21.7373 11.2031 21.8821 11.1636 22.2315 11.0602L22.2315 11.0602L22.234 11.0595C23.9921 10.5489 25.2355 9.79481 26.1071 8.75884C26.3485 8.46585 26.702 8.0846 26.8873 7.89375L26.8872 7.89365L26.8958 7.88521C27.4261 7.36447 28.1644 6.12596 28.5768 5.02654C28.9807 3.94452 29.165 2.93864 29.2182 1.47063C29.2182 1.47041 29.2183 1.4702 29.2183 1.46998L29.2429 0.743757C29.214 0.744226 29.1743 0.746056 29.1198 0.750298C29.0205 0.758018 28.8914 0.772008 28.7147 0.792548ZM19.9893 11.2038C19.9893 11.2038 19.9897 11.204 19.9907 11.2043L19.9893 11.2038ZM20.1565 11.4095C20.1565 11.4095 20.1562 11.408 20.1557 11.4053C20.1562 11.4083 20.1565 11.4096 20.1565 11.4095Z" fill="#717171" stroke="black"/>
<path d="M28.1736 12.0992L28.1765 12.099C29.0033 12.0525 30.3369 12.1629 31.2216 12.3513L31.2248 12.352C32.0819 12.5286 32.6879 12.7382 33.5902 13.1762C35.0305 13.8753 36.2482 14.8073 37.2123 15.9381C37.4013 16.1599 37.5366 16.3229 37.6321 16.4496C37.6707 16.5007 37.6989 16.5411 37.7196 16.5726C37.6526 16.6312 37.489 16.7471 37.3359 16.8356C37.2156 16.9027 37.0439 17.0282 36.8784 17.1553C36.7 17.2923 36.4963 17.4568 36.3042 17.6174C36.1126 17.7776 35.928 17.938 35.7889 18.0667C35.7204 18.1301 35.6564 18.1918 35.6069 18.2449C35.5831 18.2703 35.5538 18.3032 35.5273 18.3389C35.5145 18.3562 35.4942 18.385 35.4751 18.4215L35.4747 18.4223C35.4741 18.4234 35.4735 18.4246 35.4728 18.4259C35.4548 18.4484 35.4281 18.4803 35.3932 18.5207C35.3111 18.6155 35.1953 18.7431 35.0668 18.8768L35.0622 18.8815L35.0623 18.8815C34.1082 19.9008 33.6908 20.7428 33.1162 22.6786C32.9819 23.1263 32.8376 23.7264 32.7941 24.0361C32.6308 25.1572 32.7145 26.7243 32.9894 28.1385C33.1645 29.0606 33.8333 30.5386 34.4859 31.5203L34.4866 31.5213C35.4125 32.9073 36.7829 34.1362 38.19 34.86L38.1937 34.862C38.5326 35.0327 38.7763 35.1825 38.9277 35.3008C38.9464 35.3155 38.9628 35.3289 38.977 35.3411C38.9237 35.4358 38.8794 35.5524 38.8474 35.6446C38.8082 35.7574 38.7712 35.8824 38.743 35.9949L38.7411 36.0026L38.7412 36.0026C38.6945 36.2028 38.5139 36.6978 38.2764 37.2736C38.0439 37.8374 37.7774 38.4292 37.5775 38.8083C36.0282 41.739 34.5098 43.8826 32.904 45.4356C31.336 46.9401 29.9457 47.5435 28.5624 47.457L28.5615 47.457C27.5501 47.3957 26.5713 47.1519 25.1361 46.5735L25.1352 46.5732C23.9271 46.0889 23.4034 45.9121 22.8703 45.8368M28.1736 12.0992L22.8 46.3318M28.1736 12.0992C27.6936 12.1234 26.7426 12.3246 25.6151 12.6367C24.5029 12.9447 23.2673 13.3469 22.2386 13.7497M28.1736 12.0992L28.1484 11.5998M22.8703 45.8368C22.8702 45.8368 22.87 45.8368 22.8699 45.8367L22.8 46.3318M22.8703 45.8368C22.8704 45.8368 22.8706 45.8368 22.8707 45.8369L22.8 46.3318M22.8703 45.8368C22.6446 45.8045 22.2234 45.7398 21.9379 45.6958M22.8 46.3318C22.5703 46.299 22.1437 46.2334 21.8593 46.1896M21.9379 45.6958C21.9388 45.696 21.9396 45.6961 21.9405 45.6963L21.8593 46.1896M21.9379 45.6958C21.074 45.5539 20.4603 45.5355 19.7882 45.6784M21.9379 45.6958C21.9371 45.6957 21.9362 45.6956 21.9354 45.6955L21.8593 46.1896M21.8593 46.1896L19.7882 45.6784M19.7882 45.6784C19.7888 45.6782 19.7894 45.6781 19.7899 45.678L19.8906 46.1678L19.7864 45.6787C19.7871 45.6786 19.7876 45.6785 19.7882 45.6784ZM19.7882 45.6784C18.8125 45.8789 18.2817 45.9895 17.8611 46.1084C17.4287 46.2306 17.1139 46.361 16.5746 46.5871L16.5742 46.5873C14.883 47.2983 14.052 47.4998 13.0273 47.4998H13.0242V47.4998C12.6076 47.5024 12.3317 47.4786 12.0567 47.4096C11.7761 47.3392 11.472 47.2156 11.0055 46.9877M19.7882 45.6784L16.7679 47.0482C15.0508 47.7701 14.1484 47.9998 13.0273 47.9998C12.1523 48.0053 11.7367 47.9014 10.7851 47.4365M11.0055 46.9877C11.0058 46.9878 11.0061 46.988 11.0064 46.9881L10.7851 47.4365M11.0055 46.9877C11.0052 46.9876 11.0049 46.9874 11.0046 46.9873L10.7851 47.4365M11.0055 46.9877C10.2192 46.5996 9.66846 46.1971 8.96598 45.4791L8.96483 45.4779C8.28484 44.7874 7.81498 44.2087 6.86393 42.899M10.7851 47.4365C9.94294 47.0209 9.34685 46.5834 8.60856 45.8287C7.9031 45.1123 7.41638 44.5107 6.45935 43.1928M28.1484 11.5998C27.0656 11.6545 24.1508 12.4639 22.0562 13.2842M28.1484 11.5998C29.0234 11.5506 30.4015 11.6654 31.3258 11.8623L28.1484 11.5998ZM22.0562 13.2842L22.2388 13.7496L22.2386 13.7497M22.0562 13.2842C20.99 13.7024 20.8198 13.7691 20.6433 13.8058C20.6098 13.8127 20.5761 13.8186 20.5359 13.8256L22.0562 13.2842ZM22.2386 13.7497L22.0935 13.8066C20.9912 14.2391 20.9235 14.2657 20.6216 14.3182L20.6216 14.3182L20.6161 14.3191C20.429 14.3495 20.2184 14.3341 20.0069 14.2999C19.7884 14.2646 19.5342 14.2032 19.2462 14.1188C18.6704 13.9501 17.9247 13.6794 16.9978 13.3054M22.2386 13.7497L16.9978 13.3054M16.9978 13.3054C16.0519 12.9303 15.0731 12.6419 13.6021 12.3066C13.3336 12.2479 12.9559 12.2116 12.5856 12.2064C12.2041 12.2011 11.8928 12.2299 11.7405 12.2726L11.737 12.2736C11.5309 12.3298 10.9421 12.4478 10.4284 12.5353C9.3599 12.7258 8.78365 12.9049 8.00403 13.2896L8.00207 13.2906C5.60153 14.4621 3.96567 16.137 2.65329 18.8041L2.65268 18.8054C2.06606 19.9893 1.63528 21.1437 1.31597 22.373L16.9978 13.3054ZM6.45935 43.1928L6.86416 42.8993C6.86408 42.8992 6.86401 42.8991 6.86393 42.899M6.45935 43.1928L6.86393 42.899M6.45935 43.1928C4.12419 39.9717 3.76325 39.3373 2.62028 36.4662C2.16716 35.3288 1.97954 34.8662 1.82891 34.3919C1.70866 34.0132 1.61198 33.627 1.42263 32.8842C0.963252 31.074 0.914033 30.8771 0.914033 30.6146L1.90718 32.7609M6.86393 42.899C5.69472 41.2862 5.03652 40.3434 4.52702 39.4504C4.02055 38.5628 3.65529 37.7142 3.08483 36.2813L3.08478 36.2812C2.63371 35.1489 2.45006 34.6969 2.30312 34.2332C2.18648 33.8651 2.09297 33.4897 1.90718 32.7609M1.90718 32.7609C1.67655 31.8521 1.55163 31.3589 1.48375 31.0587C1.41739 30.7653 1.41403 30.6919 1.41403 30.6146C1.41403 30.4311 1.35363 30.0664 1.30003 29.8037L1.29869 29.7972L1.29865 29.7972C1.07104 28.7533 0.956087 27.347 0.960125 25.9622C0.964172 24.5739 1.08772 23.2528 1.31594 22.3732L1.90718 32.7609ZM39.0565 35.4199C39.0584 35.4231 39.0596 35.4247 39.0597 35.4247C39.0599 35.4247 39.0589 35.4232 39.0565 35.4199Z" fill="#717171" stroke="black"/>
</svg>
